<svg width="504" height="504" viewBox="0 0 504 504" fill="none" xmlns="http://www.w3.org/2000/svg">
<mask id="path-1-inside-1" fill="white">
<path fill-rule="evenodd" clip-rule="evenodd" d="M489.798 251.896C435.555 323.983 349.28 370.598 252.118 370.598C154.955 370.598 68.6804 323.983 14.4375 251.896C68.6804 179.81 154.955 133.195 252.118 133.195C349.28 133.195 435.555 179.81 489.798 251.896Z"/>
</mask>
<path fill-rule="evenodd" clip-rule="evenodd" d="M489.798 251.896C435.555 323.983 349.28 370.598 252.118 370.598C154.955 370.598 68.6804 323.983 14.4375 251.896C68.6804 179.81 154.955 133.195 252.118 133.195C349.28 133.195 435.555 179.81 489.798 251.896Z" fill="url(#paint0_linear)"/>
<path d="M489.798 251.896L491.396 253.099L492.301 251.896L491.396 250.694L489.798 251.896ZM14.4375 251.896L12.8394 250.694L11.9345 251.896L12.8394 253.099L14.4375 251.896ZM488.2 250.694C434.318 322.3 348.625 368.598 252.118 368.598V372.598C349.935 372.598 436.791 325.666 491.396 253.099L488.2 250.694ZM252.118 368.598C155.61 368.598 69.917 322.3 16.0356 250.694L12.8394 253.099C67.4439 325.666 154.3 372.598 252.118 372.598V368.598ZM16.0356 253.099C69.917 181.493 155.61 135.195 252.118 135.195V131.195C154.3 131.195 67.4439 178.127 12.8394 250.694L16.0356 253.099ZM252.118 135.195C348.625 135.195 434.318 181.493 488.2 253.099L491.396 250.694C436.791 178.127 349.935 131.195 252.118 131.195V135.195Z" fill="black" mask="url(#path-1-inside-1)"/>
<mask id="path-3-inside-2" fill="white">
<path fill-rule="evenodd" clip-rule="evenodd" d="M252.752 489.687C324.839 435.444 371.454 349.169 371.454 252.006C371.454 154.844 324.839 68.569 252.752 14.326C180.666 68.569 134.051 154.844 134.051 252.006C134.051 349.169 180.666 435.444 252.752 489.687Z"/>
</mask>
<path fill-rule="evenodd" clip-rule="evenodd" d="M252.752 489.687C324.839 435.444 371.454 349.169 371.454 252.006C371.454 154.844 324.839 68.569 252.752 14.326C180.666 68.569 134.051 154.844 134.051 252.006C134.051 349.169 180.666 435.444 252.752 489.687Z" fill="url(#paint1_linear)"/>
<path d="M252.752 489.687L251.55 491.285L252.752 492.19L253.955 491.285L252.752 489.687ZM252.752 14.326L253.955 12.7279L252.752 11.8231L251.55 12.7279L252.752 14.326ZM369.454 252.006C369.454 348.514 323.156 434.207 251.55 488.089L253.955 491.285C326.522 436.68 373.454 349.824 373.454 252.006H369.454ZM251.55 15.9242C323.156 69.8055 369.454 155.499 369.454 252.006H373.454C373.454 154.189 326.522 67.3324 253.955 12.7279L251.55 15.9242ZM136.051 252.006C136.051 155.499 182.349 69.8055 253.955 15.9242L251.55 12.7279C178.983 67.3324 132.051 154.189 132.051 252.006H136.051ZM253.955 488.089C182.349 434.207 136.051 348.514 136.051 252.006H132.051C132.051 349.824 178.983 436.68 251.55 491.285L253.955 488.089Z" fill="black" mask="url(#path-3-inside-2)"/>
<mask id="path-5-inside-3" fill="white">
<path fill-rule="evenodd" clip-rule="evenodd" d="M83.9347 83.9347C173.263 71.3175 267.23 99.3611 335.935 168.065C404.639 236.77 432.682 330.737 420.065 420.065C330.737 432.683 236.77 404.639 168.065 335.935C99.3609 267.23 71.3175 173.263 83.9347 83.9347Z"/>
</mask>
<path fill-rule="evenodd" clip-rule="evenodd" d="M83.9347 83.9347C173.263 71.3175 267.23 99.3611 335.935 168.065C404.639 236.77 432.682 330.737 420.065 420.065C330.737 432.683 236.77 404.639 168.065 335.935C99.3609 267.23 71.3175 173.263 83.9347 83.9347Z" fill="url(#paint2_linear)"/>
<path d="M83.9347 83.9347L83.655 81.9544L82.1648 82.1648L81.9543 83.655L83.9347 83.9347ZM335.935 168.065L334.52 169.48L335.935 168.065ZM420.065 420.065L420.345 422.046L421.835 421.835L422.046 420.345L420.065 420.065ZM168.065 335.935L169.48 334.52L168.065 335.935ZM84.2144 85.915C172.947 73.382 266.279 101.238 334.52 169.48L337.349 166.651C268.181 97.4837 173.579 69.2531 83.655 81.9544L84.2144 85.915ZM334.52 169.48C402.762 237.721 430.618 331.053 418.085 419.786L422.046 420.345C434.747 330.422 406.516 235.819 337.349 166.651L334.52 169.48ZM419.786 418.085C331.053 430.618 237.721 402.762 169.48 334.52L166.651 337.349C235.819 406.516 330.421 434.747 420.345 422.046L419.786 418.085ZM169.48 334.52C101.238 266.279 73.3819 172.947 85.915 84.2144L81.9543 83.655C69.253 173.579 97.4836 268.182 166.651 337.349L169.48 334.52Z" fill="black" mask="url(#path-5-inside-3)"/>
<mask id="path-7-inside-4" fill="white">
<path fill-rule="evenodd" clip-rule="evenodd" d="M83.9345 420.065C173.263 432.682 267.23 404.639 335.934 335.934C404.639 267.23 432.682 173.263 420.065 83.9346C330.737 71.3174 236.769 99.361 168.065 168.065C99.361 236.769 71.3175 330.737 83.9345 420.065Z"/>
</mask>
<path fill-rule="evenodd" clip-rule="evenodd" d="M83.9345 420.065C173.263 432.682 267.23 404.639 335.934 335.934C404.639 267.23 432.682 173.263 420.065 83.9346C330.737 71.3174 236.769 99.361 168.065 168.065C99.361 236.769 71.3175 330.737 83.9345 420.065Z" fill="url(#paint3_linear)"/>
<path d="M335.934 335.934L337.349 337.348L335.934 335.934ZM83.9345 420.065L81.9541 420.345L82.1646 421.835L83.6547 422.045L83.9345 420.065ZM420.065 83.9346L422.045 83.6549L421.835 82.1647L420.345 81.9542L420.065 83.9346ZM168.065 168.065L166.651 166.651L168.065 168.065ZM334.52 334.52C266.279 402.761 172.947 430.618 84.2142 418.085L83.6547 422.045C173.578 434.747 268.181 406.516 337.349 337.348L334.52 334.52ZM418.085 84.2143C430.618 172.947 402.761 266.279 334.52 334.52L337.349 337.348C406.516 268.181 434.746 173.578 422.045 83.6549L418.085 84.2143ZM169.479 169.479C237.72 101.238 331.053 73.3818 419.785 85.9149L420.345 81.9542C330.421 69.253 235.818 97.4836 166.651 166.651L169.479 169.479ZM85.9148 419.785C73.382 331.053 101.238 237.72 169.479 169.479L166.651 166.651C97.4836 235.818 69.2531 330.421 81.9541 420.345L85.9148 419.785Z" fill="black" mask="url(#path-7-inside-4)"/>
<mask id="path-9-inside-5" fill="white">
<path fill-rule="evenodd" clip-rule="evenodd" d="M251.778 108.836C221.401 123.081 192.938 142.75 167.844 167.844C142.75 192.938 123.081 221.401 108.835 251.778C123.081 282.156 142.75 310.62 167.844 335.714C192.938 360.807 221.402 380.477 251.779 394.722C282.156 380.477 310.62 360.807 335.713 335.714C360.807 310.62 380.477 282.156 394.722 251.779C380.477 221.402 360.807 192.938 335.713 167.844C310.62 142.751 282.156 123.081 251.778 108.836Z"/>
</mask>
<path fill-rule="evenodd" clip-rule="evenodd" d="M251.778 108.836C221.401 123.081 192.938 142.75 167.844 167.844C142.75 192.938 123.081 221.401 108.835 251.778C123.081 282.156 142.75 310.62 167.844 335.714C192.938 360.807 221.402 380.477 251.779 394.722C282.156 380.477 310.62 360.807 335.713 335.714C360.807 310.62 380.477 282.156 394.722 251.779C380.477 221.402 360.807 192.938 335.713 167.844C310.62 142.751 282.156 123.081 251.778 108.836Z" fill="url(#paint4_linear)"/>
<path d="M251.778 108.836L252.627 107.025L251.778 106.627L250.929 107.025L251.778 108.836ZM167.844 167.844L166.43 166.43L166.43 166.43L167.844 167.844ZM108.835 251.778L107.025 250.929L106.626 251.778L107.025 252.628L108.835 251.778ZM167.844 335.714L169.258 334.299L167.844 335.714ZM251.779 394.722L250.93 396.533L251.779 396.931L252.628 396.533L251.779 394.722ZM335.713 335.714L334.299 334.299L334.299 334.299L335.713 335.714ZM394.722 251.779L396.533 252.628L396.931 251.779L396.533 250.93L394.722 251.779ZM335.713 167.844L334.299 169.259L334.299 169.259L335.713 167.844ZM250.929 107.025C220.345 121.367 191.69 141.17 166.43 166.43L169.258 169.258C194.185 144.331 222.457 124.795 252.627 110.647L250.929 107.025ZM166.43 166.43C141.17 191.69 121.367 220.345 107.025 250.929L110.646 252.628C124.795 222.458 144.331 194.186 169.258 169.258L166.43 166.43ZM169.258 334.299C144.331 309.372 124.795 281.1 110.646 250.929L107.025 252.628C121.367 283.212 141.17 311.868 166.43 337.128L169.258 334.299ZM252.628 392.911C222.458 378.763 194.186 359.227 169.258 334.299L166.43 337.128C191.69 362.388 220.346 382.191 250.93 396.533L252.628 392.911ZM252.628 396.533C283.212 382.191 311.868 362.388 337.128 337.128L334.299 334.299C309.372 359.227 281.1 378.763 250.93 392.911L252.628 396.533ZM337.128 337.128C362.388 311.868 382.19 283.212 396.533 252.628L392.911 250.93C378.763 281.1 359.227 309.372 334.299 334.299L337.128 337.128ZM334.299 169.259C359.227 194.186 378.763 222.458 392.911 252.628L396.533 250.93C382.19 220.346 362.388 191.69 337.128 166.43L334.299 169.259ZM250.929 110.647C281.099 124.795 309.372 144.331 334.299 169.259L337.128 166.43C311.868 141.17 283.212 121.367 252.627 107.025L250.929 110.647Z" fill="black" mask="url(#path-9-inside-5)"/>
<path fill-rule="evenodd" clip-rule="evenodd" d="M206.089 191.611V247.611H222.089V215.611H230.089V231.611H238.089V215.611H246.089V247.611H262.089V191.611H246.089V199.611H238.089V207.611H230.089V199.611H222.089V191.611H206.089ZM206.089 271.611V311.611H222.089V295.611H246.089V311.611H262.089V271.611H254.089V263.611H246.089V255.611H222.089V263.611H214.089V271.611H206.089ZM246.089 287.611H222.089V271.611H230.089V263.611H238.089V271.611H246.089V287.611ZM281.533 286.361L330.615 217.652L327.887 216.405L278.804 285.114L281.533 286.361ZM134.891 254.475L169.95 222.224L169.129 221.653L134.07 253.904L134.891 254.475ZM134.891 254.475L135.679 253.86L170.738 282.605L169.95 283.22L134.891 254.475ZM339.991 222.224L375.05 254.475L374.261 253.86L339.202 282.605L339.991 283.22L375.05 254.475L375.871 253.904L340.812 221.653L339.991 222.224Z" fill="black"/>
<path d="M206.089 247.611H204.589V249.111H206.089V247.611ZM206.089 191.611V190.111H204.589V191.611H206.089ZM222.089 247.611V249.111H223.589V247.611H222.089ZM222.089 215.611V214.111H220.589V215.611H222.089ZM230.089 215.611H231.589V214.111H230.089V215.611ZM230.089 231.611H228.589V233.111H230.089V231.611ZM238.089 231.611V233.111H239.589V231.611H238.089ZM238.089 215.611V214.111H236.589V215.611H238.089ZM246.089 215.611H247.589V214.111H246.089V215.611ZM246.089 247.611H244.589V249.111H246.089V247.611ZM262.089 247.611V249.111H263.589V247.611H262.089ZM262.089 191.611H263.589V190.111H262.089V191.611ZM246.089 191.611V190.111H244.589V191.611H246.089ZM246.089 199.611V201.111H247.589V199.611H246.089ZM238.089 199.611V198.111H236.589V199.611H238.089ZM238.089 207.611V209.111H239.589V207.611H238.089ZM230.089 207.611H228.589V209.111H230.089V207.611ZM230.089 199.611H231.589V198.111H230.089V199.611ZM222.089 199.611H220.589V201.111H222.089V199.611ZM222.089 191.611H223.589V190.111H222.089V191.611ZM206.089 311.611H204.589V313.111H206.089V311.611ZM206.089 271.611V270.111H204.589V271.611H206.089ZM222.089 311.611V313.111H223.589V311.611H222.089ZM222.089 295.611V294.111H220.589V295.611H222.089ZM246.089 295.611H247.589V294.111H246.089V295.611ZM246.089 311.611H244.589V313.111H246.089V311.611ZM262.089 311.611V313.111H263.589V311.611H262.089ZM262.089 271.611H263.589V270.111H262.089V271.611ZM254.089 271.611H252.589V273.111H254.089V271.611ZM254.089 263.611H255.589V262.111H254.089V263.611ZM246.089 263.611H244.589V265.111H246.089V263.611ZM246.089 255.611H247.589V254.111H246.089V255.611ZM222.089 255.611V254.111H220.589V255.611H222.089ZM222.089 263.611V265.111H223.589V263.611H222.089ZM214.089 263.611V262.111H212.589V263.611H214.089ZM214.089 271.611V273.111H215.589V271.611H214.089ZM222.089 287.611H220.589V289.111H222.089V287.611ZM246.089 287.611V289.111H247.589V287.611H246.089ZM222.089 271.611V270.111H220.589V271.611H222.089ZM230.089 271.611V273.111H231.589V271.611H230.089ZM230.089 263.611V262.111H228.589V263.611H230.089ZM238.089 263.611H239.589V262.111H238.089V263.611ZM238.089 271.611H236.589V273.111H238.089V271.611ZM246.089 271.611H247.589V270.111H246.089V271.611ZM330.615 217.652L331.836 218.524L332.893 217.044L331.239 216.288L330.615 217.652ZM281.533 286.361L280.909 287.725L282.034 288.239L282.754 287.233L281.533 286.361ZM327.887 216.405L328.51 215.041L327.385 214.527L326.666 215.533L327.887 216.405ZM278.804 285.114L277.584 284.242L276.527 285.722L278.181 286.478L278.804 285.114ZM169.95 222.224L170.965 223.328L172.343 222.061L170.806 220.992L169.95 222.224ZM169.129 221.653L169.985 220.421L168.998 219.735L168.113 220.549L169.129 221.653ZM134.07 253.904L133.055 252.8L131.677 254.067L133.214 255.135L134.07 253.904ZM135.679 253.86L136.631 252.7L135.703 251.939L134.757 252.677L135.679 253.86ZM170.738 282.605L171.661 283.788L173.139 282.634L171.689 281.445L170.738 282.605ZM169.95 283.22L168.999 284.38L169.927 285.141L170.873 284.403L169.95 283.22ZM339.991 222.224L339.134 220.992L337.598 222.061L338.975 223.328L339.991 222.224ZM374.261 253.86L375.184 252.677L374.238 251.939L373.31 252.7L374.261 253.86ZM339.202 282.605L338.251 281.445L336.801 282.634L338.28 283.788L339.202 282.605ZM339.991 283.22L339.068 284.403L340.014 285.141L340.942 284.38L339.991 283.22ZM375.871 253.904L376.727 255.135L378.263 254.067L376.886 252.8L375.871 253.904ZM340.812 221.653L341.827 220.549L340.942 219.735L339.955 220.421L340.812 221.653ZM207.589 247.611V191.611H204.589V247.611H207.589ZM222.089 246.111H206.089V249.111H222.089V246.111ZM220.589 215.611V247.611H223.589V215.611H220.589ZM230.089 214.111H222.089V217.111H230.089V214.111ZM231.589 231.611V215.611H228.589V231.611H231.589ZM238.089 230.111H230.089V233.111H238.089V230.111ZM236.589 215.611V231.611H239.589V215.611H236.589ZM246.089 214.111H238.089V217.111H246.089V214.111ZM247.589 247.611V215.611H244.589V247.611H247.589ZM262.089 246.111H246.089V249.111H262.089V246.111ZM260.589 191.611V247.611H263.589V191.611H260.589ZM246.089 193.111H262.089V190.111H246.089V193.111ZM247.589 199.611V191.611H244.589V199.611H247.589ZM238.089 201.111H246.089V198.111H238.089V201.111ZM239.589 207.611V199.611H236.589V207.611H239.589ZM230.089 209.111H238.089V206.111H230.089V209.111ZM228.589 199.611V207.611H231.589V199.611H228.589ZM222.089 201.111H230.089V198.111H222.089V201.111ZM220.589 191.611V199.611H223.589V191.611H220.589ZM206.089 193.111H222.089V190.111H206.089V193.111ZM207.589 311.611V271.611H204.589V311.611H207.589ZM222.089 310.111H206.089V313.111H222.089V310.111ZM220.589 295.611V311.611H223.589V295.611H220.589ZM246.089 294.111H222.089V297.111H246.089V294.111ZM247.589 311.611V295.611H244.589V311.611H247.589ZM262.089 310.111H246.089V313.111H262.089V310.111ZM260.589 271.611V311.611H263.589V271.611H260.589ZM254.089 273.111H262.089V270.111H254.089V273.111ZM252.589 263.611V271.611H255.589V263.611H252.589ZM246.089 265.111H254.089V262.111H246.089V265.111ZM244.589 255.611V263.611H247.589V255.611H244.589ZM222.089 257.111H246.089V254.111H222.089V257.111ZM223.589 263.611V255.611H220.589V263.611H223.589ZM214.089 265.111H222.089V262.111H214.089V265.111ZM215.589 271.611V263.611H212.589V271.611H215.589ZM206.089 273.111H214.089V270.111H206.089V273.111ZM222.089 289.111H246.089V286.111H222.089V289.111ZM220.589 271.611V287.611H223.589V271.611H220.589ZM230.089 270.111H222.089V273.111H230.089V270.111ZM228.589 263.611V271.611H231.589V263.611H228.589ZM238.089 262.111H230.089V265.111H238.089V262.111ZM239.589 271.611V263.611H236.589V271.611H239.589ZM246.089 270.111H238.089V273.111H246.089V270.111ZM247.589 287.611V271.611H244.589V287.611H247.589ZM329.395 216.78L280.312 285.489L282.754 287.233L331.836 218.524L329.395 216.78ZM327.263 217.769L329.992 219.016L331.239 216.288L328.51 215.041L327.263 217.769ZM280.025 285.986L329.107 217.277L326.666 215.533L277.584 284.242L280.025 285.986ZM282.157 284.997L279.428 283.75L278.181 286.478L280.909 287.725L282.157 284.997ZM168.934 221.12L133.876 253.371L135.907 255.579L170.965 223.328L168.934 221.12ZM168.273 222.884L169.094 223.455L170.806 220.992L169.985 220.421L168.273 222.884ZM135.086 255.008L170.144 222.757L168.113 220.549L133.055 252.8L135.086 255.008ZM135.748 253.243L134.927 252.672L133.214 255.135L134.035 255.706L135.748 253.243ZM134.757 252.677L133.968 253.292L135.814 255.657L136.602 255.042L134.757 252.677ZM171.689 281.445L136.631 252.7L134.728 255.02L169.787 283.765L171.689 281.445ZM170.873 284.403L171.661 283.788L169.815 281.423L169.027 282.038L170.873 284.403ZM133.94 255.635L168.999 284.38L170.901 282.06L135.842 253.315L133.94 255.635ZM376.065 253.371L341.006 221.12L338.975 223.328L374.034 255.579L376.065 253.371ZM375.972 253.292L375.184 252.677L373.338 255.042L374.127 255.657L375.972 253.292ZM373.31 252.7L338.251 281.445L340.153 283.765L375.212 255.02L373.31 252.7ZM338.28 283.788L339.068 284.403L340.914 282.038L340.125 281.423L338.28 283.788ZM340.942 284.38L376.001 255.635L374.098 253.315L339.04 282.06L340.942 284.38ZM375.014 252.672L374.193 253.243L375.906 255.706L376.727 255.135L375.014 252.672ZM339.796 222.757L374.855 255.008L376.886 252.8L341.827 220.549L339.796 222.757ZM340.847 223.455L341.668 222.884L339.955 220.421L339.134 220.992L340.847 223.455Z" fill="black"/>
<defs>
<linearGradient id="paint0_linear" x1="14.4375" y1="251.897" x2="489.798" y2="251.897" gradientUnits="userSpaceOnUse">
<stop offset="0.254144" stop-color="#BB6BD9"/>
<stop offset="1" stop-color="#FFC0CB"/>
</linearGradient>
<linearGradient id="paint1_linear" x1="252.752" y1="14.326" x2="252.752" y2="489.687" gradientUnits="userSpaceOnUse">
<stop stop-color="#FFC0CB"/>
<stop offset="0.740331" stop-color="#BB6BD9"/>
</linearGradient>
<linearGradient id="paint2_linear" x1="342.29" y1="178.564" x2="177.029" y2="343.825" gradientUnits="userSpaceOnUse">
<stop stop-color="#FFC0CB"/>
<stop offset="1" stop-color="#BB6BD9"/>
</linearGradient>
<linearGradient id="paint3_linear" x1="420.065" y1="83.9345" x2="83.9344" y2="420.065" gradientUnits="userSpaceOnUse">
<stop stop-color="#FFC0CB"/>
<stop offset="0.723757" stop-color="#BB6BD9"/>
</linearGradient>
<linearGradient id="paint4_linear" x1="164.238" y1="327.452" x2="327.452" y2="164.238" gradientUnits="userSpaceOnUse">
<stop stop-color="#BB6BD9"/>
<stop offset="1" stop-color="#FFC0CB"/>
</linearGradient>
</defs>
</svg>
